<?xml version="1.0" encoding="utf-8"?>
<!-- Generator: Adobe Illustrator 22.0.1, SVG Export Plug-In . SVG Version: 6.00 Build 0)  -->
<svg version="1.1" id="Layer_1" xmlns="http://www.w3.org/2000/svg" xmlns:xlink="http://www.w3.org/1999/xlink" x="0px" y="0px"
	 viewBox="0 0 24 24" style="enable-background:new 0 0 24 24;" xml:space="preserve">
<style type="text/css">
	.st0{clip-path:url(#SVGID_2_);fill-rule:evenodd;clip-rule:evenodd;fill:#0078FF;}
	.st1{clip-path:url(#SVGID_2_);fill-rule:evenodd;clip-rule:evenodd;fill:#9E9E9E;}
	.st2{clip-path:url(#SVGID_4_);}
	.st3{fill:#9E9E9E;}
	.st4{clip-path:url(#SVGID_4_);fill-rule:evenodd;clip-rule:evenodd;fill:none;stroke:#9E9E9E;stroke-miterlimit:10;}
	.st5{clip-path:url(#SVGID_4_);fill-rule:evenodd;clip-rule:evenodd;fill:#9E9E9E;}
	.st6{fill:#0078FF;}
	.st7{fill:#FFFFFF;}
	.st8{fill:none;stroke:#9E9E9E;stroke-width:0.9583;stroke-linecap:round;stroke-miterlimit:10;}
	.st9{fill:none;stroke:#9E9E9E;stroke-width:1.0528;stroke-miterlimit:10;}
	.st10{clip-path:url(#SVGID_6_);fill:#9E9E9E;}
	.st11{clip-path:url(#SVGID_8_);fill:#0078FF;}
	.st12{fill:#838383;}
	.st13{fill:none;stroke:#9E9E9E;stroke-width:1.0018;stroke-miterlimit:10;}
</style>
<g>
	<path class="st6" d="M23.5,9.2c-0.3-0.3-0.7-0.5-1.2-0.5h-7.1V1.6c0-0.5-0.2-0.8-0.5-1.2C14.5,0.2,14.1,0,13.6,0h-3.3
		C9.9,0,9.5,0.2,9.2,0.5C8.9,0.8,8.7,1.2,8.7,1.6v7.1H1.6c-0.5,0-0.8,0.2-1.2,0.5C0.2,9.5,0,9.9,0,10.4v3.3c0,0.5,0.2,0.8,0.5,1.2
		c0.3,0.3,0.7,0.5,1.2,0.5h7.1v7.1c0,0.5,0.2,0.8,0.5,1.2c0.3,0.3,0.7,0.5,1.2,0.5h3.3c0.5,0,0.8-0.2,1.2-0.5
		c0.3-0.3,0.5-0.7,0.5-1.2v-7.1h7.1c0.5,0,0.8-0.2,1.2-0.5c0.3-0.3,0.5-0.7,0.5-1.2v-3.3C24,9.9,23.8,9.5,23.5,9.2L23.5,9.2z
		 M23.5,9.2"/>
</g>
</svg>
