<svg xmlns="http://www.w3.org/2000/svg" viewBox="0 0 16 16"><defs><style>.a{fill:#0078ff;}.b{fill:#fff;}</style></defs><title>add-more</title><path class="a" d="M8,0a8,8,0,1,0,8,8A8,8,0,0,0,8,0Z"/><path class="b" d="M11.84,7.07a.51.51,0,0,0-.39-.16H9.09V4.55a.51.51,0,0,0-.16-.39A.49.49,0,0,0,8.55,4H7.45a.49.49,0,0,0-.38.16.51.51,0,0,0-.16.39V6.91H4.55a.51.51,0,0,0-.39.16A.49.49,0,0,0,4,7.45v1.1a.49.49,0,0,0,.16.38.51.51,0,0,0,.39.16H6.91v2.36a.51.51,0,0,0,.16.39.49.49,0,0,0,.38.16h1.1a.49.49,0,0,0,.38-.16.51.51,0,0,0,.16-.39V9.09h2.36a.51.51,0,0,0,.39-.16A.49.49,0,0,0,12,8.55V7.45a.49.49,0,0,0-.16-.38Zm0,0"/></svg>