<?xml version="1.0" encoding="utf-8"?>
<!-- Generator: Adobe Illustrator 23.0.1, SVG Export Plug-In . SVG Version: 6.00 Build 0)  -->
<svg version="1.1" id="Layer_1" xmlns="http://www.w3.org/2000/svg" xmlns:xlink="http://www.w3.org/1999/xlink" x="0px" y="0px"
	 viewBox="0 0 16 16" style="enable-background:new 0 0 16 16;" xml:space="preserve">
<style type="text/css">
	.st0{fill:#0078FF;}
	.st1{fill:#9E9E9E;}
	.st2{fill:none;}
</style>
<g>
	<path class="st1" d="M15.77,7.66c0.13,0,0.23-0.1,0.23-0.23V4.16c0-0.49-0.4-0.89-0.89-0.89c-0.44,0-0.81,0.32-0.88,0.75
		C11.8,4,11.86,4.05,11.67,3.96c-0.2-0.1-0.55-0.3-0.92-0.55c-0.11-0.07-0.25-0.04-0.32,0.07c-0.07,0.11-0.04,0.25,0.07,0.32
		c0.85,0.55,1.1,0.68,1.4,0.68h2.32v4.54h-0.85c-0.03-0.2-0.13-0.39-0.26-0.54c-2.87-3.24-2.66-3-2.78-3
		C8.88,5.46,8.07,4.57,8.06,4.56C7.9,4.39,7.53,4.36,7.33,4.54L6.16,5.61C6.02,5.73,5.84,5.79,5.67,5.78
		c-0.51-0.02-0.72-0.5-0.45-0.79c0.68-0.73,0.83-0.9,0.86-0.93c-0.01,0.01-0.02,0.02,0-0.01c0.68-0.74,1.23-0.98,1.26-1
		C8.06,2.7,8.9,2.65,9.57,3.16c0.1,0.08,0.25,0.06,0.33-0.04c0.08-0.1,0.06-0.25-0.04-0.33C9.16,2.26,8.2,2.14,7.22,2.6
		c-0.6-0.17-1.03-0.19-1.3-0.06C5.15,2.89,4.27,3.82,3.97,3.96C3.78,4.06,3.79,4,1.77,4.01C1.7,3.59,1.34,3.27,0.89,3.27
		C0.4,3.27,0,3.67,0,4.16v0.73c0,0.13,0.1,0.23,0.23,0.23c0.13,0,0.23-0.1,0.23-0.23V4.16c0-0.23,0.19-0.42,0.42-0.42
		c0.23,0,0.42,0.19,0.42,0.42c0,0.23,0,4.49,0,5.17c0,0.23-0.19,0.42-0.42,0.42c-0.23,0-0.42-0.19-0.42-0.42V6.07
		c0-0.13-0.11-0.23-0.23-0.23C0.1,5.83,0,5.94,0,6.07v3.26c0,0.49,0.4,0.89,0.89,0.89c0.44,0,0.8-0.31,0.88-0.73h1.05
		c0.11,0.46,0.52,0.79,1.01,0.77c-0.09,0.62,0.4,1.16,1.02,1.14c-0.09,0.62,0.4,1.16,1.02,1.14c-0.13,0.94,0.98,1.5,1.66,0.88
		l0.5-0.45c0.63,0.53,1.64,0.13,1.69-0.73c0.63,0.18,1.25-0.26,1.31-0.9c0.7,0.17,1.36-0.41,1.27-1.13c0.47,0.02,0.9-0.27,1.03-0.72
		h0.9c0.08,0.41,0.44,0.73,0.88,0.73c0.49,0,0.89-0.4,0.89-0.89V8.55c0-0.13-0.1-0.23-0.23-0.23c-0.13,0-0.23,0.11-0.23,0.23v0.78
		c0,0.23-0.19,0.42-0.42,0.42c-0.23,0-0.42-0.19-0.42-0.42c0-0.37,0-4.31,0-5.17c0-0.23,0.19-0.42,0.42-0.42
		c0.23,0,0.42,0.19,0.42,0.42v3.26C15.53,7.55,15.64,7.66,15.77,7.66L15.77,7.66z M3.28,9.11c0.03-0.09,0.08-0.18,0.15-0.24
		C4.05,8.32,4.1,8.25,4.27,8.2c0.52-0.14,0.92,0.5,0.5,0.91L4.15,9.66C3.75,10.02,3.13,9.63,3.28,9.11L3.28,9.11z M4.42,10.76
		c-0.2-0.22-0.18-0.55,0.04-0.75c0.02-0.02-0.09,0.08,0.62-0.55C5.3,9.26,5.63,9.28,5.83,9.5h0c0.16,0.18,0.2,0.47,0,0.71
		c-0.03,0.04-0.01,0.01-0.66,0.59C4.95,11,4.62,10.98,4.42,10.76L4.42,10.76z M5.44,11.9c-0.2-0.22-0.18-0.55,0.04-0.75
		c0.65-0.58,0.68-0.65,0.89-0.68c0.19-0.03,0.37,0.04,0.48,0.17c0.19,0.22,0.18,0.55-0.04,0.75L6.2,11.94
		C5.98,12.14,5.64,12.12,5.44,11.9L5.44,11.9z M7.87,12.49c-0.04,0.04,0,0-0.65,0.59c-0.22,0.2-0.55,0.18-0.75-0.04
		c-0.2-0.22-0.18-0.55,0.04-0.75c0.63-0.56,0.68-0.65,0.87-0.68c0.01,0,0.28-0.07,0.49,0.17C8.06,11.97,8.06,12.29,7.87,12.49
		L7.87,12.49z M12.03,9.65c-0.22-0.15-0.49,0.13-0.31,0.34c0.19,0.23,0.16,0.57-0.05,0.77c-0.22,0.2-0.55,0.2-0.77,0
		c-0.19-0.17-0.48,0.04-0.37,0.27c0.1,0.23,0.04,0.5-0.15,0.66c-0.23,0.19-0.57,0.17-0.78-0.06l-0.06-0.06
		c-0.08-0.09-0.22-0.1-0.32-0.02c-0.1,0.08-0.12,0.22-0.04,0.32c0.16,0.23,0.13,0.54-0.08,0.74c-0.21,0.19-0.52,0.2-0.73,0.03
		c0.4-0.68-0.12-1.53-0.9-1.5c0.08-0.61-0.4-1.16-1.03-1.14c0.09-0.61-0.4-1.16-1.02-1.14c0.04-0.3-0.05-0.59-0.25-0.81
		c-0.37-0.41-1-0.45-1.41-0.08C3.1,8.55,3.12,8.53,3.06,8.58c-0.12,0.13-0.2,0.28-0.24,0.44H1.79V4.48c1.9-0.03,2.04,0.07,2.39-0.1
		c0.4-0.19,1.23-1.09,1.94-1.42C6.17,2.94,6.31,2.9,6.63,2.95C5.88,3.47,5.44,4.12,4.88,4.67C4.33,5.27,4.76,6.26,5.7,6.25
		c0.28,0,0.56-0.11,0.77-0.3L7.63,4.9c0.03-0.02,0.06-0.02,0.09,0c0.52,0.55,1.45,1.01,2.48,1.05c2.77,3.1,2.56,2.86,2.59,2.9
		c0.08,0.11,0.11,0.39,0.11,0.39C12.87,9.68,12.38,9.89,12.03,9.65L12.03,9.65z M12.03,9.65"/>
	<rect y="2.29" class="st2" width="16" height="11.42"/>
	<path d="M6.08,4.06C6.09,4.06,6.09,4.05,6.08,4.06L6.08,4.06z M6.08,4.06"/>
</g>
</svg>
