<?xml version="1.0" encoding="utf-8"?>
<!-- Generator: Adobe Illustrator 22.0.1, SVG Export Plug-In . SVG Version: 6.00 Build 0)  -->
<svg version="1.1" id="Layer_1" xmlns="http://www.w3.org/2000/svg" xmlns:xlink="http://www.w3.org/1999/xlink" x="0px" y="0px"
	 viewBox="0 0 24 24" style="enable-background:new 0 0 24 24;" xml:space="preserve">
<style type="text/css">
	.st0{clip-path:url(#SVGID_2_);fill-rule:evenodd;clip-rule:evenodd;fill:#0078FF;}
	.st1{clip-path:url(#SVGID_2_);fill-rule:evenodd;clip-rule:evenodd;fill:#9E9E9E;}
	.st2{clip-path:url(#SVGID_4_);}
	.st3{fill:#9E9E9E;}
	.st4{clip-path:url(#SVGID_4_);fill-rule:evenodd;clip-rule:evenodd;fill:none;stroke:#9E9E9E;stroke-miterlimit:10;}
	.st5{clip-path:url(#SVGID_4_);fill-rule:evenodd;clip-rule:evenodd;fill:#9E9E9E;}
	.st6{fill:#0078FF;}
	.st7{fill:#FFFFFF;}
	.st8{fill:none;stroke:#9E9E9E;stroke-width:0.9583;stroke-linecap:round;stroke-miterlimit:10;}
	.st9{fill:none;stroke:#9E9E9E;stroke-width:1.0528;stroke-miterlimit:10;}
	.st10{clip-path:url(#SVGID_6_);fill:#9E9E9E;}
	.st11{clip-path:url(#SVGID_8_);fill:#0078FF;}
	.st12{fill:#838383;}
	.st13{fill:none;stroke:#9E9E9E;stroke-width:1.0018;stroke-miterlimit:10;}
</style>
<path class="st3" d="M18.6,7.3C18.4,7,18,7,17.7,7.2c-1.1,0.8-6.7,4.6-7.3,5.2c-0.9,0.9-0.9,2.3,0,3.1c0.4,0.4,1,0.7,1.6,0.7
	s1.1-0.2,1.6-0.7c0.6-0.6,4.4-6.2,5.2-7.3C18.9,7.9,18.9,7.6,18.6,7.3z M12.5,14.5c-0.3,0.3-0.8,0.3-1,0c-0.3-0.3-0.3-0.8,0-1
	c0.2-0.2,1.8-1.4,3.8-2.7C13.9,12.7,12.8,14.2,12.5,14.5z M21.5,13.9c0,1.9-0.6,3.7-1.6,5.3c-0.1,0.2-0.4,0.3-0.6,0.3
	c-0.1,0-0.2,0-0.3-0.1l-1.6-0.7c-0.4-0.2-0.5-0.6-0.4-1c0.2-0.4,0.6-0.5,1-0.4l1,0.5c0.7-1.2,1-2.5,1-3.9c0-1.1-0.2-2.3-0.7-3.3
	c-0.2-0.4,0-0.8,0.4-1c0.4-0.2,0.8,0,1,0.4C21.2,11.3,21.5,12.6,21.5,13.9z M6.9,17.7c0.2,0.4,0,0.8-0.3,1l-1.5,0.7
	c-0.1,0.1-0.2,0.1-0.3,0.1c-0.2,0-0.5-0.1-0.6-0.3c-1.1-1.6-1.6-3.4-1.6-5.3c0-2.5,1-4.9,2.8-6.7C7.1,5.4,9.5,4.4,12,4.4
	c1.4,0,2.7,0.3,3.9,0.8c0.4,0.2,0.5,0.6,0.4,1c-0.2,0.4-0.6,0.5-1,0.4C14.5,6.3,13.6,6,12.7,6v1.1c0,0.4-0.3,0.7-0.7,0.7
	c-0.4,0-0.7-0.3-0.7-0.7V6C8.7,6.2,6.4,7.7,5.2,9.8l1,0.5c0.4,0.2,0.5,0.6,0.3,1c-0.1,0.3-0.4,0.4-0.7,0.4c-0.1,0-0.2,0-0.3-0.1
	l-1-0.5C4.2,12,4,12.9,4,13.9c0,1.4,0.4,2.7,1,3.9l0.9-0.4C6.3,17.2,6.7,17.4,6.9,17.7z"/>
</svg>
