<svg xmlns="http://www.w3.org/2000/svg" viewBox="0 0 16 16"><defs><style>.a{fill:#0078ff;}</style></defs><title>download</title><path class="a" d="M16,10.48a.61.61,0,0,0-1.22,0V14H1.22V10.48a.61.61,0,0,0-.61-.61.61.61,0,0,0-.61.61v3.88a.5.5,0,0,0,0,.13.5.5,0,0,0,0,.13.61.61,0,0,0,.61.61H15.39a.61.61,0,0,0,.61-.61.5.5,0,0,0,0-.13.5.5,0,0,0,0-.13Zm0,0"/><path class="a" d="M8,.77a.61.61,0,0,0-.61.61v8.91L4.77,7.63a.61.61,0,0,0-.86.86l3.7,3.7a.6.6,0,0,0,.43.18.61.61,0,0,0,.43-.18l3.69-3.7a.61.61,0,0,0-.86-.86L8.65,10.29V1.38A.61.61,0,0,0,8,.77Zm0,0"/></svg>