<svg xmlns="http://www.w3.org/2000/svg" viewBox="0 0 16 16"><defs><style>.a{fill:#0078ff;}</style></defs><title>filters-active</title><path class="a" d="M8.47,7.8V.45a.45.45,0,1,0-.9,0V7.8a2.28,2.28,0,0,0,0,4.48v3.27a.45.45,0,0,0,.9,0V12.28a2.29,2.29,0,0,0,0-4.48ZM8,11.42A1.39,1.39,0,1,1,9.4,10,1.38,1.38,0,0,1,8,11.42Z"/><path class="a" d="M3,4V.45a.45.45,0,0,0-.9,0V4a2.28,2.28,0,0,0,0,4.47v7.05a.45.45,0,0,0,.9,0v-7A2.28,2.28,0,0,0,3,4ZM2.51,7.65A1.39,1.39,0,1,1,3.89,6.27,1.38,1.38,0,0,1,2.51,7.65Z"/><path class="a" d="M13.94,4V.45a.45.45,0,1,0-.9,0V4A2.28,2.28,0,0,0,13,8.5v7.05a.45.45,0,1,0,.9,0v-7a2.28,2.28,0,0,0,0-4.47Zm-.45,3.62a1.39,1.39,0,1,1,1.38-1.38A1.38,1.38,0,0,1,13.49,7.65Z"/></svg>