<svg xmlns="http://www.w3.org/2000/svg" xmlns:xlink="http://www.w3.org/1999/xlink" viewBox="0 0 16 16"><defs><style>.a{fill:none;}.b{clip-path:url(#a);}</style><clipPath id="a"><rect class="a" y="0.84" width="16" height="14.33"/></clipPath></defs><title>funds1</title><g class="b"><path d="M12.22,6.85h0a.06.06,0,0,1,0,0h0s0,0,0,0h0v0h0l0,0h0l0,0h0l0,0h0l0,0-5.32-3L9.77,1.62l5.15,2.92L12.75,5.91a.35.35,0,0,0-.11.49.37.37,0,0,0,.5.12l2.67-1.69A.37.37,0,0,0,16,4.52a.35.35,0,0,0-.18-.31L9.94.88a.38.38,0,0,0-.37,0L5.81,3.26h0L3.93,4.44h0L.17,6.81A.37.37,0,0,0,0,7.13a.35.35,0,0,0,.18.3L6,10.76a.37.37,0,0,0,.18.05.35.35,0,0,0,.19-.06L9.09,9.07a.36.36,0,1,0-.39-.61L6.21,10,1.07,7.1,4.13,5.17,9.62,8.29v4.13a.35.35,0,0,0,.18.31.41.41,0,0,0,.18,0,.33.33,0,0,0,.19-.06l1.88-1.18a.36.36,0,0,0,.17-.31V6.89h0v0Zm-1.88,4.91V8.08a.38.38,0,0,0-.18-.32l-5.33-3L6,4l5.15,2.92-.46.28a.38.38,0,0,0-.11.5.37.37,0,0,0,.31.17.45.45,0,0,0,.19-.05l.41-.26V11Zm0,0"/><path d="M15.43,5.67,12.75,7.35a.36.36,0,0,0-.11.5.35.35,0,0,0,.3.17.36.36,0,0,0,.2-.06l2.67-1.68a.37.37,0,0,0,.12-.5.36.36,0,0,0-.5-.11Zm0,0"/><path d="M8.7,9.9,6.21,11.47.54,8.25a.35.35,0,0,0-.49.14.36.36,0,0,0,.13.49L6,12.21a.37.37,0,0,0,.18,0,.35.35,0,0,0,.19-.06l2.68-1.69A.35.35,0,0,0,9.2,10a.37.37,0,0,0-.5-.12Zm0,0"/><path d="M15.43,7.11,12.75,8.8a.36.36,0,0,0-.11.5.35.35,0,0,0,.3.17.36.36,0,0,0,.2-.06l2.67-1.69a.36.36,0,0,0,.12-.49.37.37,0,0,0-.5-.12Zm0,0"/><path d="M8.7,11.35,6.21,12.92.54,9.7a.36.36,0,0,0-.49.13.37.37,0,0,0,.13.5L6,13.65a.29.29,0,0,0,.18,0,.45.45,0,0,0,.19,0L9.09,12a.36.36,0,0,0-.39-.61Zm0,0"/><path d="M15.43,8.56l-2.68,1.68a.36.36,0,0,0-.11.5.35.35,0,0,0,.3.17.46.46,0,0,0,.2-.05l2.67-1.69a.37.37,0,0,0,.12-.5.36.36,0,0,0-.5-.11Zm0,0"/><path d="M8.7,12.79,6.21,14.36.54,11.14a.37.37,0,0,0-.49.14.36.36,0,0,0,.13.49L6,15.1a.37.37,0,0,0,.18.05.35.35,0,0,0,.19-.06l2.68-1.68a.36.36,0,0,0,.11-.5.37.37,0,0,0-.5-.12Zm0,0"/></g></svg>