<?xml version="1.0" encoding="utf-8"?>
<!-- Generator: Adobe Illustrator 22.0.1, SVG Export Plug-In . SVG Version: 6.00 Build 0)  -->
<svg version="1.1" id="Layer_1" xmlns="http://www.w3.org/2000/svg" xmlns:xlink="http://www.w3.org/1999/xlink" x="0px" y="0px"
	 viewBox="0 0 24 24" style="enable-background:new 0 0 24 24;" xml:space="preserve">
<style type="text/css">
	.st0{clip-path:url(#SVGID_2_);fill-rule:evenodd;clip-rule:evenodd;fill:#0078FF;}
	.st1{clip-path:url(#SVGID_2_);fill-rule:evenodd;clip-rule:evenodd;fill:#9E9E9E;}
	.st2{clip-path:url(#SVGID_4_);}
	.st3{fill:#9E9E9E;}
	.st4{clip-path:url(#SVGID_4_);fill-rule:evenodd;clip-rule:evenodd;fill:none;stroke:#9E9E9E;stroke-miterlimit:10;}
	.st5{clip-path:url(#SVGID_4_);fill-rule:evenodd;clip-rule:evenodd;fill:#9E9E9E;}
	.st6{fill:#0078FF;}
	.st7{fill:#FFFFFF;}
	.st8{fill:none;stroke:#9E9E9E;stroke-width:0.9583;stroke-linecap:round;stroke-miterlimit:10;}
	.st9{fill:none;stroke:#9E9E9E;stroke-width:1.0528;stroke-miterlimit:10;}
	.st10{clip-path:url(#SVGID_6_);fill:#9E9E9E;}
	.st11{clip-path:url(#SVGID_8_);fill:#0078FF;}
	.st12{fill:#838383;}
	.st13{fill:none;stroke:#9E9E9E;stroke-width:1.0018;stroke-miterlimit:10;}
</style>
<path class="st6" d="M22,0.7H2c-0.4,0-0.7,0.2-0.9,0.6C0.9,1.6,1,2,1.2,2.3l7,10.3c0,0,0,0,0,0c0.3,0.4,0.5,0.9,0.5,1.4v8.2
	c0,0.3,0.1,0.5,0.3,0.7c0.2,0.2,0.5,0.3,0.7,0.3c0.1,0,0.3,0,0.4-0.1l4.5-1.7c0.4-0.1,0.7-0.5,0.7-1V14c0-0.5,0.2-1,0.5-1.4
	c0,0,0,0,0,0l7-10.3C23,2,23.1,1.6,22.9,1.3C22.7,0.9,22.4,0.7,22,0.7L22,0.7z"/>
</svg>
