<?xml version="1.0" encoding="utf-8"?>
<!-- Generator: Adobe Illustrator 22.0.1, SVG Export Plug-In . SVG Version: 6.00 Build 0)  -->
<svg version="1.1" id="Layer_1" xmlns="http://www.w3.org/2000/svg" xmlns:xlink="http://www.w3.org/1999/xlink" x="0px" y="0px"
	 viewBox="0 0 16 16" style="enable-background:new 0 0 16 16;" xml:space="preserve">
<style type="text/css">
	.st0{fill:#9E9E9E;}
</style>
<g>
	<g>
		<path d="M15,12c0,0.2,0,0.4-0.2,0.6l-2,2c-0.1,0.1-0.2,0.2-0.3,0.3C12.3,14.9,12.2,15,12,15c0,0,0,0-0.1,0c0,0-0.1,0-0.2,0
			c-0.2,0-0.5,0-0.9-0.1c-0.4-0.1-0.9-0.2-1.5-0.5c-0.6-0.3-1.3-0.6-2.1-1.1c-0.8-0.5-1.6-1.2-2.5-2.1c-0.7-0.7-1.3-1.3-1.7-2
			C2.6,8.6,2.2,8.1,2,7.5C1.7,7,1.5,6.5,1.3,6.1C1.2,5.7,1.1,5.3,1.1,5C1,4.7,1,4.4,1,4.3C1,4.1,1,4,1,4c0-0.1,0.1-0.3,0.1-0.4
			c0.1-0.1,0.2-0.3,0.3-0.3l2-2C3.5,1.1,3.7,1,3.8,1C4,1,4.1,1,4.2,1.1c0.1,0.1,0.2,0.2,0.3,0.3l1.6,3c0.1,0.2,0.1,0.3,0.1,0.5
			c0,0.2-0.1,0.3-0.3,0.5L5.1,6.1c0,0,0,0.1-0.1,0.1c0,0,0,0.1,0,0.1c0,0.2,0.1,0.4,0.3,0.7c0.1,0.2,0.3,0.5,0.5,0.9
			c0.2,0.3,0.6,0.7,1.1,1.2c0.4,0.5,0.8,0.8,1.2,1.1c0.3,0.3,0.6,0.4,0.9,0.6c0.2,0.1,0.4,0.2,0.5,0.2l0.2,0c0,0,0.1,0,0.1,0
			c0,0,0.1,0,0.1-0.1l0.8-0.9c0.2-0.2,0.4-0.2,0.6-0.2c0.2,0,0.3,0,0.4,0.1h0l2.9,1.7C14.8,11.7,15,11.8,15,12L15,12z M15,12"/>
	</g>
</g>
</svg>
