<?xml version="1.0" encoding="utf-8"?>
<!-- Generator: Adobe Illustrator 22.0.1, SVG Export Plug-In . SVG Version: 6.00 Build 0)  -->
<svg version="1.1" id="Layer_1" xmlns="http://www.w3.org/2000/svg" xmlns:xlink="http://www.w3.org/1999/xlink" x="0px" y="0px"
	 viewBox="0 0 16 16" style="enable-background:new 0 0 16 16;" xml:space="preserve">
<style type="text/css">
	.st0{fill:#9E9E9E;}
</style>
<g>
	<path d="M1.9,5.7c0.2,0.1,0.8,0.5,1.7,1.2c1,0.7,1.7,1.2,2.2,1.5c0.1,0,0.2,0.1,0.4,0.3C6.4,8.8,6.5,9,6.7,9
		c0.1,0.1,0.3,0.2,0.4,0.3c0.2,0.1,0.3,0.2,0.5,0.2C7.7,9.6,7.9,9.6,8,9.6h0c0.1,0,0.3,0,0.4-0.1c0.2-0.1,0.3-0.1,0.5-0.2
		C9.1,9.2,9.2,9.1,9.3,9C9.5,9,9.6,8.8,9.8,8.7c0.2-0.1,0.3-0.2,0.4-0.3c0.5-0.4,1.8-1.3,3.9-2.7c0.4-0.3,0.7-0.6,1-1
		c0.3-0.4,0.4-0.8,0.4-1.3c0-0.4-0.1-0.7-0.4-0.9c-0.3-0.3-0.6-0.4-0.9-0.4H1.8c-0.4,0-0.8,0.1-1,0.4C0.6,2.8,0.5,3.2,0.5,3.6
		C0.5,4,0.7,4.4,1,4.8C1.3,5.2,1.6,5.5,1.9,5.7L1.9,5.7z M1.9,5.7"/>
	<path d="M14.7,6.6c-1.8,1.2-3.2,2.2-4.2,2.9c-0.3,0.2-0.6,0.4-0.8,0.5c-0.2,0.1-0.5,0.3-0.8,0.4c-0.3,0.1-0.6,0.2-0.9,0.2h0
		c-0.3,0-0.6-0.1-0.9-0.2c-0.3-0.1-0.6-0.3-0.8-0.4C6.1,9.9,5.8,9.8,5.5,9.5C4.8,9,3.4,8,1.3,6.6C1,6.4,0.7,6.2,0.5,5.9v6.6
		c0,0.4,0.1,0.7,0.4,0.9c0.3,0.3,0.6,0.4,0.9,0.4h12.3c0.4,0,0.7-0.1,0.9-0.4c0.3-0.3,0.4-0.6,0.4-0.9V5.9C15.3,6.2,15,6.4,14.7,6.6
		L14.7,6.6z M14.7,6.6"/>
</g>
</svg>
