<?xml version="1.0" encoding="utf-8"?>
<!-- Generator: Adobe Illustrator 22.0.1, SVG Export Plug-In . SVG Version: 6.00 Build 0)  -->
<svg version="1.1" id="Layer_1" xmlns="http://www.w3.org/2000/svg" xmlns:xlink="http://www.w3.org/1999/xlink" x="0px" y="0px"
	 viewBox="0 0 16 16" style="enable-background:new 0 0 16 16;" xml:space="preserve">
<style type="text/css">
	.st0{fill:#0078FF;}
	.st1{fill:#28B835;}
	.st2{fill:#FF6854;}
</style>
<g>
	<path class="st0" d="M15.7,11.2h-2.1c0.4-0.9,0.6-1.9,0.6-3c0-0.8-0.1-1.6-0.4-2.4h1.9c0.2,0,0.3-0.1,0.3-0.3s-0.1-0.3-0.3-0.3
		h-2.1C12.4,2.9,10,1.2,7.1,1.2C3.2,1.2,0,4.4,0,8.3s3.2,7.1,7.1,7.1c2.6,0,4.9-1.4,6.2-3.6h2.4c0.2,0,0.3-0.1,0.3-0.3
		C16,11.4,15.9,11.2,15.7,11.2L15.7,11.2z M7.1,14.8c-3.6,0-6.5-2.9-6.5-6.5c0-3.6,2.9-6.5,6.5-6.5c2.5,0,4.7,1.4,5.8,3.6H7.2L8.5,4
		c0.1-0.1,0.1-0.3,0-0.4c-0.1-0.1-0.3-0.1-0.4,0L6.3,5.4c0,0,0,0.1-0.1,0.1c0,0.1,0,0.2,0,0.2c0,0,0,0.1,0.1,0.1l1.8,1.8
		c0.1,0.1,0.1,0.1,0.2,0.1c0.1,0,0.2,0,0.2-0.1c0.1-0.1,0.1-0.3,0-0.4L7.2,5.9h5.9c0.3,0.7,0.4,1.5,0.4,2.4c0,1.1-0.3,2.1-0.7,3H7.2
		L8.5,10c0.1-0.1,0.1-0.3,0-0.4c-0.1-0.1-0.3-0.1-0.4,0l-1.8,1.8c0,0,0,0.1-0.1,0.1c0,0.1,0,0.2,0,0.2c0,0,0,0.1,0.1,0.1l1.8,1.8
		c0.1,0.1,0.1,0.1,0.2,0.1c0.1,0,0.2,0,0.2-0.1c0.1-0.1,0.1-0.3,0-0.4l-1.3-1.3h5.3C11.4,13.6,9.4,14.8,7.1,14.8L7.1,14.8z
		 M7.1,14.8"/>
</g>
</svg>
