<?xml version="1.0" encoding="utf-8"?>
<!-- Generator: Adobe Illustrator 22.0.1, SVG Export Plug-In . SVG Version: 6.00 Build 0)  -->
<svg version="1.1" id="Layer_1" xmlns="http://www.w3.org/2000/svg" xmlns:xlink="http://www.w3.org/1999/xlink" x="0px" y="0px"
	 viewBox="0 0 16 16" style="enable-background:new 0 0 16 16;" xml:space="preserve">
<style type="text/css">
	.st0{fill:#0078FF;}
	.st1{fill:#28B835;}
	.st2{fill:#FF6854;}
</style>
<g>
	<path class="st0" d="M14.3,11.7c-1.5-1.2-3-2-3.7-2.4v-2C11,7,11.2,6.5,11.2,6.1V3.4c0-1.6-1.3-2.9-2.9-2.9H7.7
		c-1.6,0-2.9,1.3-2.9,2.9v2.7C4.8,6.5,5,7,5.3,7.3v2c-0.6,0.3-2.2,1.2-3.7,2.4C1.2,12.1,1,12.6,1,13.2V15c0,0.3,0.2,0.5,0.5,0.5h0.5
		v-1.1v-1.3c0-0.2,0.1-0.4,0.3-0.6C4,11.3,5.7,10.4,6,10.2c0.2-0.1,0.4-0.3,0.4-0.6V7.1c0-0.2-0.1-0.3-0.2-0.4
		C6,6.5,5.9,6.3,5.9,6.1V3.4c0-1,0.8-1.9,1.9-1.9h0.6c1,0,1.9,0.8,1.9,1.9v2.7c0,0.2-0.1,0.4-0.3,0.5C9.7,6.7,9.6,6.9,9.6,7.1v2.6
		c0,0.3,0.1,0.5,0.4,0.6c0.3,0.2,2.1,1,3.7,2.4c0.2,0.1,0.3,0.4,0.3,0.6v1.3h0v1.1h0.5c0.3,0,0.5-0.2,0.5-0.5v-1.8
		C15,12.6,14.8,12.1,14.3,11.7z"/>
	<g>
		<path class="st0" d="M8.5,12.9H10v0.9H8.5v1.7H7.5v-1.7H6v-0.9h1.5v-1.6h0.9V12.9z"/>
	</g>
</g>
</svg>
