<?xml version="1.0" encoding="utf-8"?>
<!-- Generator: Adobe Illustrator 23.0.1, SVG Export Plug-In . SVG Version: 6.00 Build 0)  -->
<svg version="1.1" id="Layer_1" xmlns="http://www.w3.org/2000/svg" xmlns:xlink="http://www.w3.org/1999/xlink" x="0px" y="0px"
	 viewBox="0 0 16 16" style="enable-background:new 0 0 16 16;" xml:space="preserve">
<style type="text/css">
	.st0{fill:#0078FF;}
	.st1{fill:#9E9E9E;}
	.st2{fill:none;}
</style>
<g>
	<path class="st0" d="M8,0.5C3.86,0.5,0.5,3.86,0.5,8c0,4.14,3.36,7.5,7.5,7.5c4.14,0,7.5-3.37,7.5-7.5C15.5,3.86,12.14,0.5,8,0.5
		L8,0.5z M12.32,12.13c0-0.17,0-0.3,0-0.3c0-1.02-1.18-1.4-1.81-1.67c-0.23-0.1-0.66-0.31-1.1-0.52c-0.15-0.07-0.28-0.27-0.3-0.43
		L9.06,8.73C9.4,8.41,9.7,7.98,9.75,7.48h0.08c0.12,0,0.23-0.09,0.25-0.2l0.12-0.74c0.02-0.16-0.13-0.25-0.25-0.25
		c0-0.01,0.01-0.03,0.01-0.04c0.02-0.09,0.02-0.17,0.03-0.26C9.99,5.92,10,5.85,10,5.78c0.01-0.35-0.05-0.66-0.14-0.83
		c-0.1-0.24-0.25-0.47-0.46-0.67C8.81,3.72,8.13,3.51,7.55,3.95c-0.4-0.07-0.86,0.11-1.2,0.51C6.16,4.68,6.05,4.93,6,5.17
		C5.96,5.32,5.93,5.5,5.92,5.7C5.91,5.93,5.93,6.13,5.97,6.29C5.86,6.3,5.74,6.39,5.74,6.54l0.12,0.74c0.02,0.11,0.13,0.2,0.25,0.2
		h0.07c0.11,0.53,0.39,0.96,0.7,1.27L6.84,9.22c-0.02,0.17-0.15,0.36-0.3,0.43c-0.43,0.21-0.85,0.41-1.1,0.51
		c-0.59,0.25-1.81,0.64-1.81,1.67v0.23C2.62,11,2.01,9.57,2.01,8C2.01,4.7,4.7,2.01,8,2.01c3.3,0,5.99,2.69,5.99,5.99
		C13.99,9.6,13.35,11.06,12.32,12.13L12.32,12.13z M12.32,12.13"/>
</g>
</svg>
