<?xml version="1.0" encoding="utf-8"?>
<!-- Generator: Adobe Illustrator 22.0.1, SVG Export Plug-In . SVG Version: 6.00 Build 0)  -->
<svg version="1.1" id="Layer_1" xmlns="http://www.w3.org/2000/svg" xmlns:xlink="http://www.w3.org/1999/xlink" x="0px" y="0px"
	 viewBox="0 0 16 16" style="enable-background:new 0 0 16 16;" xml:space="preserve">
<style type="text/css">
	.st0{fill:#0078FF;}
	.st1{fill:#28B835;}
	.st2{fill:#FF6854;}
</style>
<g>
	<path class="st0" d="M8,0C3.6,0,0,3.6,0,8s3.6,8,8,8s8-3.6,8-8S12.4,0,8,0L8,0z M4.1,9.2C3.5,9.2,2.9,8.7,2.9,8
		c0-0.7,0.5-1.2,1.2-1.2S5.3,7.3,5.3,8C5.3,8.7,4.8,9.2,4.1,9.2L4.1,9.2z M8,9.2C7.3,9.2,6.8,8.7,6.8,8c0-0.7,0.5-1.2,1.2-1.2
		c0.7,0,1.2,0.5,1.2,1.2C9.2,8.7,8.7,9.2,8,9.2L8,9.2z M11.9,9.2c-0.7,0-1.2-0.5-1.2-1.2c0-0.7,0.5-1.2,1.2-1.2s1.2,0.5,1.2,1.2
		C13.1,8.7,12.5,9.2,11.9,9.2L11.9,9.2z M11.9,9.2"/>
</g>
</svg>
