<?xml version="1.0" encoding="utf-8"?>
<!-- Generator: Adobe Illustrator 22.0.1, SVG Export Plug-In . SVG Version: 6.00 Build 0)  -->
<svg version="1.1" id="Layer_1" xmlns="http://www.w3.org/2000/svg" xmlns:xlink="http://www.w3.org/1999/xlink" x="0px" y="0px"
	 viewBox="0 0 16 16" style="enable-background:new 0 0 16 16;" xml:space="preserve">
<style type="text/css">
	.st0{fill:#0078FF;}
	.st1{fill:#28B835;}
	.st2{fill:#FF6854;}
</style>
<g>
	<g>
		<path class="st0" d="M16,12.6c0,0.3,0,0.5-0.2,0.7l-2.3,2.2c-0.1,0.1-0.2,0.2-0.4,0.3c-0.2,0.1-0.3,0.1-0.5,0.2c0,0,0,0-0.1,0
			c-0.1,0-0.1,0-0.2,0c-0.2,0-0.6,0-1-0.1c-0.5-0.1-1.1-0.3-1.8-0.5C8.8,15.1,8,14.6,7.1,14c-0.9-0.6-1.8-1.4-2.8-2.4
			c-0.8-0.8-1.4-1.5-2-2.2c-0.5-0.7-0.9-1.4-1.3-2C0.8,6.9,0.6,6.3,0.4,5.8C0.2,5.3,0.1,4.9,0.1,4.6C0,4.2,0,3.9,0,3.7
			c0-0.2,0-0.3,0-0.3c0-0.2,0.1-0.3,0.2-0.5c0.1-0.2,0.2-0.3,0.3-0.4l2.3-2.3C2.9,0.1,3.1,0,3.3,0c0.1,0,0.3,0,0.4,0.1
			c0.1,0.1,0.2,0.2,0.3,0.3l1.8,3.4c0.1,0.2,0.1,0.4,0.1,0.6c0,0.2-0.1,0.4-0.3,0.5L4.7,5.8c0,0,0,0.1-0.1,0.1c0,0.1,0,0.1,0,0.1
			c0,0.2,0.1,0.5,0.3,0.8c0.1,0.3,0.3,0.6,0.6,1c0.3,0.4,0.7,0.8,1.2,1.3c0.5,0.5,1,0.9,1.4,1.2c0.4,0.3,0.7,0.5,1,0.6
			c0.3,0.1,0.5,0.2,0.6,0.2l0.2,0c0,0,0.1,0,0.1,0c0.1,0,0.1,0,0.1-0.1l1-1c0.2-0.2,0.4-0.3,0.7-0.3c0.2,0,0.3,0,0.5,0.1h0l3.3,1.9
			C15.8,12.2,15.9,12.4,16,12.6L16,12.6z M16,12.6"/>
	</g>
</g>
</svg>
