<svg xmlns="http://www.w3.org/2000/svg" viewBox="0 0 16 16"><defs><style>.a{fill:#0078ff;}</style></defs><title>print</title><path class="a" d="M1,13.23H4V15a.52.52,0,0,0,.52.53h7A.52.52,0,0,0,12,15V13.23h3a.52.52,0,0,0,.53-.53V3.3A.52.52,0,0,0,15,2.77H12V1A.52.52,0,0,0,11.49.5h-7A.52.52,0,0,0,4,1V2.77H1A.52.52,0,0,0,.5,3.3v9.4A.55.55,0,0,0,1,13.23ZM11,14.44H5V10.08H11ZM5,1.56H11V2.77H5ZM1.56,3.83H14.44v8.34H12V10.08h1A.53.53,0,0,0,13,9H3.06a.53.53,0,0,0,0,1.06H4v2.09H1.56Z"/><path class="a" d="M10.8,6.55h1.37a.53.53,0,1,0,0-1H10.8a.53.53,0,1,0,0,1Z"/></svg>