<?xml version="1.0" encoding="utf-8"?>
<!-- Generator: Adobe Illustrator 22.0.1, SVG Export Plug-In . SVG Version: 6.00 Build 0)  -->
<svg version="1.1" id="Layer_1" xmlns="http://www.w3.org/2000/svg" xmlns:xlink="http://www.w3.org/1999/xlink" x="0px" y="0px"
	 viewBox="0 0 24 24" style="enable-background:new 0 0 24 24;" xml:space="preserve">
<style type="text/css">
	.st0{clip-path:url(#SVGID_2_);fill-rule:evenodd;clip-rule:evenodd;fill:#0078FF;}
	.st1{clip-path:url(#SVGID_2_);fill-rule:evenodd;clip-rule:evenodd;fill:#9E9E9E;}
	.st2{clip-path:url(#SVGID_4_);}
	.st3{fill:#9E9E9E;}
	.st4{clip-path:url(#SVGID_4_);fill-rule:evenodd;clip-rule:evenodd;fill:none;stroke:#9E9E9E;stroke-miterlimit:10;}
	.st5{clip-path:url(#SVGID_4_);fill-rule:evenodd;clip-rule:evenodd;fill:#9E9E9E;}
	.st6{fill:#0078FF;}
	.st7{fill:#FFFFFF;}
	.st8{fill:none;stroke:#9E9E9E;stroke-width:0.9583;stroke-linecap:round;stroke-miterlimit:10;}
	.st9{fill:none;stroke:#9E9E9E;stroke-width:1.0528;stroke-miterlimit:10;}
	.st10{clip-path:url(#SVGID_6_);fill:#9E9E9E;}
	.st11{clip-path:url(#SVGID_8_);fill:#0078FF;}
	.st12{fill:#838383;}
	.st13{fill:none;stroke:#9E9E9E;stroke-width:1.0018;stroke-miterlimit:10;}
</style>
<g>
	<path class="st6" d="M23.6,11.9c0.2,0.2,0.4,0.1,0.4-0.2V4.1c0-0.5-0.5-1-1.1-1h-7.6c-0.3,0-0.4,0.2-0.2,0.4l2.7,2.7l-1.1,1.1
		l-5.1,5.1L8.9,9.7c-0.2-0.2-0.5-0.2-0.8,0l-7.5,7.5c-0.8,0.8-0.8,2.2,0,3l0.1,0.1c0.8,0.8,2.2,0.8,3,0l4.8-4.8l2.7,2.7
		c0.2,0.2,0.5,0.2,0.8,0L21,9.2L23.6,11.9z M23.6,11.9"/>
</g>
</svg>
