<?xml version="1.0" encoding="utf-8"?>
<!-- Generator: Adobe Illustrator 22.0.1, SVG Export Plug-In . SVG Version: 6.00 Build 0)  -->
<svg version="1.1" id="Layer_1" xmlns="http://www.w3.org/2000/svg" xmlns:xlink="http://www.w3.org/1999/xlink" x="0px" y="0px"
	 viewBox="0 0 16 16" style="enable-background:new 0 0 16 16;" xml:space="preserve">
<style type="text/css">
	.st0{fill:#0078FF;}
	.st1{fill:#28B835;}
	.st2{fill:#FF6854;}
	.st3{fill:#FFFFFF;}
</style>
<circle class="st0" cx="8" cy="8" r="8"/>
<path class="st3" d="M12.9,10.9l-2.7-2.7l1.9-1.1c0.1-0.1,0.2-0.2,0.2-0.4c0-0.2-0.1-0.3-0.3-0.4L3.6,3C3.4,3,3.3,3,3.1,3.1
	C3,3.3,3,3.4,3,3.6l3.4,8.4c0.1,0.2,0.2,0.3,0.4,0.3c0.2,0,0.3-0.1,0.4-0.2l1.1-1.9l2.7,2.7C11,13,11.1,13,11.3,13
	c0.1,0,0.2,0,0.3-0.1l1.3-1.3C13,11.4,13,11.1,12.9,10.9L12.9,10.9z M12.9,10.9"/>
</svg>
