<?xml version="1.0" encoding="utf-8"?>
<!-- Generator: Adobe Illustrator 23.0.1, SVG Export Plug-In . SVG Version: 6.00 Build 0)  -->
<svg version="1.1" id="Layer_1" xmlns="http://www.w3.org/2000/svg" xmlns:xlink="http://www.w3.org/1999/xlink" x="0px" y="0px"
	 viewBox="0 0 16 16" style="enable-background:new 0 0 16 16;" xml:space="preserve">
<style type="text/css">
	.st0{fill:#0078FF;}
	.st1{fill:#9E9E9E;}
	.st2{fill:none;}
</style>
<g>
	<path class="st0" d="M14.93,3.98c-0.72-1.23-1.69-2.2-2.91-2.91C10.79,0.36,9.45,0,8,0C6.55,0,5.21,0.36,3.98,1.07
		c-1.23,0.72-2.2,1.69-2.91,2.91C0.36,5.21,0,6.55,0,8c0,1.45,0.36,2.79,1.07,4.02c0.72,1.23,1.69,2.2,2.91,2.91
		C5.21,15.64,6.55,16,8,16c1.45,0,2.79-0.36,4.02-1.07c1.23-0.72,2.2-1.69,2.91-2.91C15.64,10.79,16,9.45,16,8
		S15.64,5.21,14.93,3.98L14.93,3.98z M12.91,10.84c-0.51,0.87-1.19,1.56-2.06,2.06C9.98,13.41,9.03,13.67,8,13.67
		c-1.03,0-1.98-0.25-2.84-0.76c-0.87-0.51-1.56-1.19-2.06-2.06C2.59,9.98,2.33,9.03,2.33,8c0-1.03,0.25-1.98,0.76-2.84
		C3.6,4.29,4.29,3.6,5.16,3.09C6.02,2.59,6.97,2.33,8,2.33s1.98,0.25,2.84,0.76c0.87,0.51,1.56,1.19,2.06,2.06
		c0.51,0.87,0.76,1.82,0.76,2.84C13.67,9.03,13.41,9.98,12.91,10.84L12.91,10.84z M12.91,10.84"/>
	<path class="st0" d="M8,5.33c-0.74,0-1.36,0.26-1.89,0.78C5.59,6.64,5.33,7.26,5.33,8s0.26,1.36,0.78,1.89
		c0.52,0.52,1.15,0.78,1.89,0.78s1.36-0.26,1.89-0.78c0.52-0.52,0.78-1.15,0.78-1.89s-0.26-1.36-0.78-1.89
		C9.36,5.59,8.74,5.33,8,5.33L8,5.33z M8,5.33"/>
</g>
</svg>
