<?xml version="1.0" encoding="utf-8"?>
<!-- Generator: Adobe Illustrator 22.0.1, SVG Export Plug-In . SVG Version: 6.00 Build 0)  -->
<svg version="1.1" id="Layer_1" xmlns="http://www.w3.org/2000/svg" xmlns:xlink="http://www.w3.org/1999/xlink" x="0px" y="0px"
	 viewBox="0 0 24 24" style="enable-background:new 0 0 24 24;" xml:space="preserve">
<style type="text/css">
	.st0{clip-path:url(#SVGID_2_);fill-rule:evenodd;clip-rule:evenodd;fill:#0078FF;}
	.st1{clip-path:url(#SVGID_2_);fill-rule:evenodd;clip-rule:evenodd;fill:#9E9E9E;}
	.st2{clip-path:url(#SVGID_4_);}
	.st3{fill:#9E9E9E;}
	.st4{clip-path:url(#SVGID_4_);fill-rule:evenodd;clip-rule:evenodd;fill:none;stroke:#9E9E9E;stroke-miterlimit:10;}
	.st5{clip-path:url(#SVGID_4_);fill-rule:evenodd;clip-rule:evenodd;fill:#9E9E9E;}
	.st6{fill:#0078FF;}
	.st7{fill:#FFFFFF;}
	.st8{fill:none;stroke:#9E9E9E;stroke-width:0.9583;stroke-linecap:round;stroke-miterlimit:10;}
	.st9{fill:none;stroke:#9E9E9E;stroke-width:1.0528;stroke-miterlimit:10;}
	.st10{clip-path:url(#SVGID_6_);fill:#9E9E9E;}
	.st11{clip-path:url(#SVGID_8_);fill:#0078FF;}
	.st12{fill:#838383;}
	.st13{fill:none;stroke:#9E9E9E;stroke-width:1.0018;stroke-miterlimit:10;}
</style>
<g>
	<g>
		<defs>
			<rect id="SVGID_5_" width="24" height="24.1"/>
		</defs>
		<clipPath id="SVGID_2_">
			<use xlink:href="#SVGID_5_"  style="overflow:visible;"/>
		</clipPath>
		<path style="clip-path:url(#SVGID_2_);fill:#9E9E9E;" d="M22.8,9.5l-1.7-0.3c-0.2-0.6-0.4-1.1-0.7-1.6l1-1.4
			c0.4-0.6,0.4-1.4-0.2-1.9l-1.5-1.5c-0.3-0.3-0.7-0.4-1-0.4c-0.3,0-0.6,0.1-0.9,0.3l-1.4,1c-0.5-0.3-1.1-0.5-1.7-0.7l-0.3-1.7
			C14.4,0.5,13.7,0,13,0h-2.1c-0.7,0-1.3,0.5-1.5,1.2L9.1,2.9C8.6,3.1,8,3.3,7.5,3.6l-1.4-1C5.9,2.4,5.6,2.4,5.3,2.4
			c-0.4,0-0.8,0.2-1,0.4L2.7,4.3C2.2,4.8,2.1,5.6,2.6,6.2l1,1.4C3.3,8.1,3.1,8.7,2.9,9.2L1.2,9.5C0.5,9.6,0,10.3,0,11v2.1
			c0,0.7,0.5,1.3,1.2,1.5l1.7,0.3c0.2,0.6,0.4,1.1,0.7,1.6l-1,1.4c-0.4,0.6-0.4,1.4,0.2,1.9l1.5,1.5c0.3,0.3,0.7,0.4,1,0.4
			c0.3,0,0.6-0.1,0.9-0.3l1.4-1c0.5,0.3,1,0.5,1.6,0.7l0.3,1.7c0.1,0.7,0.7,1.2,1.5,1.2h2.1c0.7,0,1.3-0.5,1.5-1.2l0.3-1.7
			c0.6-0.2,1.1-0.4,1.6-0.7l1.4,1c0.3,0.2,0.6,0.3,0.9,0.3c0.4,0,0.8-0.2,1-0.4l1.5-1.5c0.5-0.5,0.6-1.3,0.2-1.9l-1-1.4
			c0.3-0.5,0.5-1.1,0.7-1.6l1.7-0.3c0.7-0.1,1.2-0.7,1.2-1.5v-2.1C24,10.2,23.5,9.6,22.8,9.5L22.8,9.5z M22.7,13.1
			c0,0.1,0,0.1-0.1,0.1l-2.1,0.4c-0.3,0-0.5,0.2-0.5,0.5c-0.2,0.7-0.5,1.4-0.9,2.1c-0.1,0.2-0.1,0.5,0,0.7l1.2,1.7
			c0,0.1,0,0.1,0,0.2l-1.5,1.5c0,0-0.1,0-0.1,0c0,0-0.1,0-0.1,0l-1.7-1.2c-0.2-0.2-0.5-0.2-0.7,0c-0.7,0.4-1.4,0.7-2.1,0.9
			c-0.3,0.1-0.5,0.3-0.5,0.5l-0.4,2.1c0,0.1-0.1,0.1-0.1,0.1h-2.1c-0.1,0-0.1,0-0.1-0.1l-0.4-2.1c0-0.3-0.2-0.5-0.5-0.5
			c-0.7-0.2-1.4-0.5-2.1-0.8C7.8,19,7.7,19,7.6,19c-0.1,0-0.3,0-0.4,0.1l-1.8,1.2c0,0,0,0-0.1,0c0,0-0.1,0-0.1,0l-1.5-1.5
			c0,0-0.1-0.1,0-0.2L5,16.9c0.2-0.2,0.2-0.5,0-0.7c-0.4-0.7-0.7-1.4-0.9-2.1c-0.1-0.3-0.3-0.5-0.5-0.5l-2.1-0.4
			c-0.1,0-0.1-0.1-0.1-0.1V11c0-0.1,0-0.1,0.1-0.1l2.1-0.4c0.3,0,0.5-0.2,0.5-0.5C4.3,9.3,4.6,8.6,5,7.9c0.1-0.2,0.1-0.5,0-0.7
			L3.7,5.4c0-0.1,0-0.1,0-0.2l1.5-1.5c0,0,0.1,0,0.1,0c0,0,0.1,0,0.1,0L7.1,5c0.2,0.2,0.5,0.2,0.7,0c0.7-0.4,1.4-0.7,2.1-0.9
			c0.3-0.1,0.5-0.3,0.5-0.5l0.4-2.1c0-0.1,0.1-0.1,0.1-0.1H13c0.1,0,0.1,0,0.1,0.1l0.4,2.1c0,0.3,0.2,0.5,0.5,0.5
			c0.8,0.2,1.5,0.5,2.2,0.9c0.2,0.1,0.5,0.1,0.7,0l1.7-1.2c0,0,0.1,0,0.1,0c0,0,0.1,0,0.1,0l1.5,1.5c0,0,0.1,0.1,0,0.2l-1.2,1.7
			c-0.2,0.2-0.2,0.5,0,0.7c0.4,0.7,0.7,1.4,0.9,2.1c0.1,0.3,0.3,0.5,0.5,0.5l2.1,0.4c0.1,0,0.1,0.1,0.1,0.1L22.7,13.1L22.7,13.1z
			 M22.7,13.1"/>
	</g>
	<path class="st3" d="M12,6.8c-2.9,0-5.2,2.3-5.2,5.2c0,2.9,2.3,5.2,5.2,5.2c2.9,0,5.2-2.3,5.2-5.2C17.2,9.1,14.9,6.8,12,6.8L12,6.8
		z M12,15.8c-2.1,0-3.8-1.7-3.8-3.8c0-2.1,1.7-3.8,3.8-3.8c2.1,0,3.8,1.7,3.8,3.8C15.8,14.1,14.1,15.8,12,15.8L12,15.8z M12,15.8"/>
</g>
</svg>
