<?xml version="1.0" encoding="utf-8"?>
<!-- Generator: Adobe Illustrator 23.0.1, SVG Export Plug-In . SVG Version: 6.00 Build 0)  -->
<svg version="1.1" id="Layer_1" xmlns="http://www.w3.org/2000/svg" xmlns:xlink="http://www.w3.org/1999/xlink" x="0px" y="0px"
	 viewBox="0 0 16 16" style="enable-background:new 0 0 16 16;" xml:space="preserve">
<style type="text/css">
	.st0{fill:#0078FF;}
	.st1{fill:#9E9E9E;}
	.st2{fill:none;}
</style>
<g>
	<path class="st1" d="M13.84,7.39c0.47-0.33,0.78-0.88,0.78-1.49c0-1.01-0.82-1.83-1.83-1.83s-1.83,0.82-1.83,1.83
		c0,0.62,0.31,1.17,0.78,1.49c-0.4,0.14-0.77,0.35-1.08,0.63c-0.43-0.36-0.93-0.64-1.48-0.81c0.67-0.41,1.12-1.14,1.12-1.98
		c0-1.28-1.04-2.31-2.31-2.31c-1.28,0-2.31,1.04-2.31,2.31c0,0.84,0.45,1.58,1.12,1.98c-0.54,0.16-1.04,0.44-1.47,0.8
		C5.01,7.74,4.65,7.53,4.25,7.39C4.72,7.06,5.03,6.52,5.03,5.9c0-1.01-0.82-1.83-1.83-1.83c-1.01,0-1.83,0.82-1.83,1.83
		c0,0.62,0.31,1.17,0.78,1.49C0.9,7.83,0,9.02,0,10.42v0.21c0,0.01,0.01,0.01,0.01,0.01h3.87C3.86,10.82,3.85,11,3.85,11.18v0.22
		c0,0.93,0.75,1.68,1.68,1.68h4.91c0.93,0,1.68-0.75,1.68-1.68v-0.22c0-0.18-0.01-0.36-0.03-0.54h3.9c0.01,0,0.01-0.01,0.01-0.01
		v-0.21C15.99,9.02,15.09,7.82,13.84,7.39L13.84,7.39z M11.47,5.89c0-0.73,0.59-1.32,1.32-1.32s1.32,0.59,1.32,1.32
		c0,0.72-0.58,1.3-1.29,1.32c-0.01,0-0.02,0-0.03,0s-0.02,0-0.03,0C12.05,7.2,11.47,6.61,11.47,5.89L11.47,5.89z M6.17,5.23
		c0-1,0.81-1.81,1.81-1.81s1.81,0.81,1.81,1.81c0,0.96-0.76,1.75-1.7,1.8c-0.03,0-0.07,0-0.1,0c-0.03,0-0.07,0-0.1,0
		C6.93,6.99,6.17,6.2,6.17,5.23L6.17,5.23z M1.88,5.89c0-0.73,0.59-1.32,1.32-1.32s1.32,0.59,1.32,1.32c0,0.72-0.58,1.3-1.29,1.32
		c-0.01,0-0.02,0-0.03,0c-0.01,0-0.02,0-0.03,0C2.46,7.2,1.88,6.61,1.88,5.89L1.88,5.89z M3.97,10.14H0.51
		c0.14-1.35,1.28-2.41,2.67-2.42c0.01,0,0.01,0,0.02,0c0.01,0,0.01,0,0.02,0c0.66,0,1.26,0.25,1.73,0.64
		C4.49,8.86,4.15,9.46,3.97,10.14L3.97,10.14z M11.61,11.4c0,0.65-0.53,1.18-1.18,1.18H5.53c-0.65,0-1.18-0.53-1.18-1.18v-0.22
		c0-1.97,1.57-3.57,3.52-3.63c0.03,0,0.07,0,0.11,0c0.03,0,0.07,0,0.11,0c1.95,0.06,3.52,1.67,3.52,3.63V11.4z M11.99,10.14
		c-0.17-0.67-0.51-1.27-0.96-1.76c0.47-0.41,1.08-0.65,1.74-0.66c0.01,0,0.01,0,0.02,0s0.01,0,0.02,0c1.38,0.01,2.52,1.07,2.67,2.42
		H11.99z M11.99,10.14"/>
</g>
</svg>
