<?xml version="1.0" encoding="utf-8"?>
<!-- Generator: Adobe Illustrator 22.0.1, SVG Export Plug-In . SVG Version: 6.00 Build 0)  -->
<svg version="1.1" id="Layer_1" xmlns="http://www.w3.org/2000/svg" xmlns:xlink="http://www.w3.org/1999/xlink" x="0px" y="0px"
	 viewBox="0 0 24 24" style="enable-background:new 0 0 24 24;" xml:space="preserve">
<style type="text/css">
	.st0{clip-path:url(#SVGID_2_);fill-rule:evenodd;clip-rule:evenodd;fill:#0078FF;}
	.st1{clip-path:url(#SVGID_2_);fill-rule:evenodd;clip-rule:evenodd;fill:#9E9E9E;}
	.st2{clip-path:url(#SVGID_4_);}
	.st3{fill:#9E9E9E;}
	.st4{clip-path:url(#SVGID_4_);fill-rule:evenodd;clip-rule:evenodd;fill:none;stroke:#9E9E9E;stroke-miterlimit:10;}
	.st5{clip-path:url(#SVGID_4_);fill-rule:evenodd;clip-rule:evenodd;fill:#9E9E9E;}
	.st6{fill:#0078FF;}
	.st7{fill:#FFFFFF;}
	.st8{fill:none;stroke:#9E9E9E;stroke-width:0.9583;stroke-linecap:round;stroke-miterlimit:10;}
	.st9{fill:none;stroke:#9E9E9E;stroke-width:1.0528;stroke-miterlimit:10;}
	.st10{clip-path:url(#SVGID_6_);fill:#9E9E9E;}
	.st11{clip-path:url(#SVGID_8_);fill:#0078FF;}
	.st12{fill:#838383;}
	.st13{fill:none;stroke:#9E9E9E;stroke-width:1.0018;stroke-miterlimit:10;}
</style>
<g>
	<path class="st6" d="M21.4,2.6h-1.9V1c0-0.6-0.6-1-1.2-1h-1.7c-0.6,0-1.1,0.4-1.1,1v1.6H8.5V1c0-0.6-0.5-1-1.1-1H5.7
		C5.1,0,4.5,0.4,4.5,1v1.6H2.6c-1.2,0-2.2,0.9-2.2,2.1c0,0,0,0.1,0,0.1v16.7c0,1.3,0.9,2.5,2.2,2.5h18.7c1.3,0,2.2-1.2,2.2-2.5V4.8
		c0-1.2-0.9-2.2-2.1-2.2C21.5,2.6,21.4,2.6,21.4,2.6z M16.6,1.2h1.8v3.2h-1.8V1.2z M5.7,1.2h1.6v3.2H5.7V1.2z M2.6,3.8h1.9v0.6
		c0,0.6,0.6,1.1,1.2,1.1h1.7c0.6,0,1.1-0.4,1.1-1c0,0,0,0,0-0.1V3.8h6.9v0.6c0,0.6,0.4,1.1,1,1.1c0,0,0,0,0.1,0h1.7
		c0.6,0,1.2-0.5,1.2-1.1V3.8h1.9c0.5,0,1,0.4,1,0.9c0,0.1,0,0.1,0,0.2v3.3H1.6V4.8c0-0.5,0.3-1,0.9-1.1C2.5,3.8,2.6,3.8,2.6,3.8z"/>
	<path class="st7" d="M14.6,20.7l-0.3-0.1l-2.6-1.4l-2.6,1.4c-0.3,0.1-0.6,0-0.8-0.2c-0.1-0.1-0.1-0.2-0.1-0.4l0.5-2.9l-2.1-2
		c-0.2-0.2-0.2-0.4-0.1-0.6c0.1-0.2,0.3-0.3,0.5-0.4l2.9-0.4l1.3-2.6c0.1-0.3,0.5-0.4,0.8-0.3c0.1,0.1,0.2,0.2,0.3,0.3l1.3,2.6
		l2.9,0.4c0.2,0,0.4,0.2,0.5,0.4c0.1,0.2,0,0.4-0.1,0.6l-2.1,2l0.5,2.9c0,0.2-0.1,0.4-0.2,0.5C14.8,20.7,14.7,20.7,14.6,20.7z"/>
</g>
</svg>
